<svg fill="none" xmlns="http://www.w3.org/2000/svg" viewBox="0 0 312 215">
  <g opacity=".6">
    <path d="m-133.86 70.46-51.73-33.66 88.9 1.09-14.95 31.52-16.25 4.58L-84.4 10l-44.34 5.45 65.23 47.24 36.96-14.12-35.56-54.15L27.14 8.88-4.9-51.24l76.54 13.06-50.97-57.2L101.44-92l-54.68-57.9 69.12-18.79-15.05-75.67-42.95 23.16-3.3-80.6-9.13 33.68-21.44-47.61 19.27 35.56 19.2-10.77 9.55 38.59 34.77 24.08m0 0-49.56 8.82 24.99 16.5-.98 36.69 23.18 17.82 2.36-79.83Z" stroke="#fff" stroke-width=".5"/>
    <path d="M27.29 10.26 22.15-43.9-22.99 4.9v-30.43l5.52 60.25-44.8-41.68 12.48-3.33L70.84-37.82 27.3 10.26Z" stroke="#fff" stroke-width=".5"/>
    <path d="m27.29 10.26-52.47 38.17-60.03-38.05m0 0 20.24 54.44-46.67 4.59 38.87-12.1L-23 4.9l-62.22 5.47Z" stroke="#fff" stroke-width=".5"/>
    <path d="M100.8-90.25-5.55-49.5l108-99.01L70.64-37.23-22.84 6.29l-3.35 43.09-103.15-34.14-37.65 66.13-44.43-83.88-2.05 70.02-47.46-111.46-6.9 74.18-6.26-92.27-51.27-72.52-27.78 51.92 26.8-119.09 17.42-59.7" stroke="#fff" stroke-width=".5"/>
    <circle cx="19.08" cy="9.21" r="2.48" transform="rotate(20.27 19.08 9.2)" fill="#fff"/>
    <circle cx="26.92" cy="9.46" r="4.96" transform="rotate(20.27 26.92 9.46)" fill="#fff"/>
    <path d="m-42.68 122.66 90.97-20.64 7.17-64.16 41.65-7.1 9.17-53.5 65.3 14.86-42.95 53.59-5.37-101.87 12.06 46.13-11.43 38.11-41.63-18.02 91.44-29.07-39.72-71.55 31.67 16.33-32.07 63.56 19.87-93.2 47.05 26.63m0 0 12.05-14.73-60.22-62.6 48.17 77.33Z" stroke="#fff" stroke-width=".5"/>
    <path d="m-19.66 121.24 74.53-83.6 74.55 7.7L23.38 58.43l-65.47 64.45-39-14.4" stroke="#fff" stroke-width=".5"/>
    <path d="m-43.47 123.03 23.6-1.2L-18 86.13m0 0 .1-1.95L23.4 58.43l41.8 37.26L-18 86.14Z" stroke="#fff" stroke-width=".5"/>
    <path d="m72.47 70.6-23.38 31.06-26.16-16.94 32.31-46.28L80.52 9.41l-8.05 61.2ZM105.33-23.75l18.88-31.4 42.24-19.45 28.84 31.16-41.2-62.18-.17-49.67-2.2-47.78 32 67.38 28.48 30.36 10.94-34.98-63.94-20.31 62.31-14.69-.94-13.57-37.9-12.02m0 0-31.46-4.35-6.38-27.49 62.03 18.29-46.93 55.42 22.75-41.87ZM-9.4-406.13l51.72 33.66-88.9-1.09 14.95-31.51 16.25-4.59-43.48 63.98 44.35-5.45-65.23-47.24-36.97 14.12 35.56 54.15-89.25-14.45 32.03 60.12-76.53-13.06 50.97 57.2-80.78-3.38 54.69 57.9-69.12 18.79 15.04 75.67 42.95-23.16 3.3 80.6 9.13-33.68 21.44 47.61-19.27-35.56-19.2 10.77-9.55-38.59-34.76-24.08m0 0 49.56-8.82-25-16.5.99-36.69-23.19-17.82-2.36 79.83Z" stroke="#fff" stroke-width=".5"/>
    <path d="m49.67 101.87 79.54-55.95-56.96 25.26-49.68 12.74-67.78 25.9 3.27 14.44" stroke="#fff" stroke-width=".5"/>
    <circle cx="64.97" cy="96.28" r="2.48" transform="rotate(-159.73 64.97 96.28)" fill="#fff"/>
    <circle cx="23.39" cy="58.43" r="2.48" transform="rotate(-159.73 23.39 58.43)" fill="#fff"/>
    <circle cx="71.67" cy="70.97" r="2.48" transform="rotate(-159.73 71.67 70.97)" fill="#fff"/>
    <circle cx="96.89" cy="31.34" r="2.48" transform="rotate(-159.73 96.9 31.34)" fill="#fff"/>
    <circle cx="22.93" cy="84.72" r="2.48" transform="rotate(-159.73 22.93 84.72)" fill="#fff"/>
    <circle cx="81.1" cy="9.63" r="2.48" transform="rotate(-159.73 81.1 9.63)" fill="#fff"/>
    <circle cx="54.66" cy="38.23" r="4.96" transform="rotate(-159.73 54.66 38.23)" fill="#fff"/>
    <circle cx="48.29" cy="102.02" r="4.96" transform="rotate(-159.73 48.3 102.02)" fill="#fff"/>
    <circle cx="128.63" cy="45.71" r="4.96" transform="rotate(-159.73 128.63 45.7)" fill="#fff"/>
    <circle cx="123.31" cy="27.87" r="2.48" transform="rotate(-159.73 123.31 27.87)" fill="#fff"/>
  </g>
</svg>
