<?xml version="1.0" encoding="UTF-8"?>
<svg id="Layer_2" data-name="Layer 2" xmlns="http://www.w3.org/2000/svg" viewBox="0 0 736.12 146.19">
  <!-- Oasis Network -->
  <defs>
    <style>
      .cls-1 {
        fill: #fff;
        stroke-width: 0px;
      }
    </style>
  </defs>
  <g id="Layer_1-2" data-name="Layer 1">
    <g>
      <g>
        <path class="cls-1" d="M125.26,21.97c-6.14-6.26-13.4-11.41-21.44-15.15-.33-.17-.66-.32-1-.47-1.58-.71-3.18-1.38-4.81-1.97-4.58-1.66-9.37-2.88-14.32-3.6-3.46-.5-7-.78-10.6-.78C32.79,0,0,32.79,0,73.09c0,31.4,19.9,58.23,47.76,68.56,3.28,1.21,6.66,2.2,10.14,2.93,4.91,1.04,9.99,1.6,15.2,1.6,27.76,0,51.96-15.56,64.33-38.42,5.59-10.32,8.77-22.14,8.77-34.68,0-19.89-7.99-37.94-20.92-51.13ZM21.8,112.2c-8.64-11.39-13.2-24.98-13.2-39.3,0-24.45,13.56-45.8,33.55-56.91.53-.29,1.05.41.61.82-1.83,1.72-3.58,3.56-5.25,5.52-11.59,13.55-18.26,31.98-18.32,50.58,0,24.14,16.15,50.2,42.24,50.2,23.28,0,42.23-22.52,42.23-50.2,0-13.01-4.36-25.5-11.81-34.76-.26-.33.05-.79.45-.67,12.59,3.72,22,18.2,22,35.44,0,15.22-5.52,30.37-15.15,41.57-9.98,11.61-23.38,18.01-37.72,18.01-15.1,0-29.56-7.41-39.63-20.28ZM125.54,33.63c8.63,11.36,13.18,24.94,13.17,39.25,0,24.45-13.56,45.8-33.55,56.92-.53.29-1.05-.41-.61-.82,1.83-1.72,3.58-3.56,5.25-5.52,11.59-13.55,18.26-31.98,18.32-50.58,0-24.14-16.15-50.2-42.24-50.2-23.28,0-42.23,22.52-42.23,50.2,0,13.01,4.36,25.5,11.81,34.77.26.33-.05.79-.45.67-12.59-3.72-22-18.19-22-35.42,0-15.22,5.52-30.37,15.15-41.56,9.98-11.61,23.38-18.01,37.73-18.01,15.09,0,29.54,7.4,39.65,20.3ZM96.02,72.89c0,17.24-8.38,32.12-20.38,38.8-1.49.83-3.32.72-4.7-.28l-2.57-1.87c-10.53-7.68-17.07-21.73-17.07-36.67,0-17.24,8.38-32.12,20.38-38.8,1.49-.83,3.32-.72,4.7.28l2.57,1.87c10.53,7.68,17.07,21.73,17.07,36.66Z"/>
        <g>
          <path class="cls-1" d="M206.83,50.96c-3.26-2.09-7.08-3.13-11.44-3.13s-8.19,1.04-11.48,3.13c-3.29,2.09-5.83,5.07-7.63,8.96-1.8,3.89-2.7,8.52-2.7,13.89s.9,9.93,2.7,13.82c1.8,3.89,4.34,6.88,7.63,8.99,3.29,2.11,7.11,3.17,11.48,3.17s8.18-1.05,11.44-3.17c3.26-2.11,5.8-5.11,7.63-8.99,1.82-3.89,2.73-8.49,2.73-13.82s-.91-10.06-2.73-13.92c-1.82-3.86-4.37-6.84-7.63-8.92ZM204.93,83.16c-.93,2.59-2.23,4.57-3.89,5.94-1.65,1.37-3.54,2.05-5.65,2.05s-4.01-.68-5.68-2.05c-1.68-1.37-2.99-3.35-3.92-5.94-.94-2.59-1.4-5.71-1.4-9.35s.47-6.76,1.4-9.35c.93-2.59,2.24-4.57,3.92-5.94,1.68-1.37,3.57-2.05,5.68-2.05s3.99.68,5.65,2.05c1.66,1.37,2.95,3.33,3.89,5.9.94,2.57,1.4,5.7,1.4,9.39s-.47,6.76-1.4,9.35Z"/>
          <path class="cls-1" d="M235.85,50.42l-12.33,45.55c-.4,1.49.72,2.95,2.25,2.95h5.51c1.06,0,1.99-.72,2.26-1.74l1.89-7.17c.27-1.03,1.2-1.74,2.26-1.74h12.57c1.07,0,2,.72,2.26,1.75l1.85,7.15c.27,1.03,1.2,1.75,2.26,1.75h5.78c1.54,0,2.66-1.46,2.25-2.95l-12.4-45.55c-.28-1.02-1.2-1.72-2.25-1.72h-11.9c-1.05,0-1.98.71-2.25,1.73ZM241.18,79.63c-1.53,0-2.65-1.45-2.26-2.93l2.07-7.86.75-3.13c.57-2.39,3.97-2.39,4.54,0l.75,3.13,2.03,7.87c.38,1.48-.73,2.92-2.26,2.92h-5.63Z"/>
          <path class="cls-1" d="M321.01,51.03v3.96c0,1.29,1.05,2.34,2.34,2.34h3.75c1.29,0,2.34,1.05,2.34,2.34v28.28c0,1.29-1.05,2.34-2.34,2.34h-3.75c-1.29,0-2.34,1.05-2.34,2.34v3.96c0,1.29,1.05,2.34,2.34,2.34h22.6c1.29,0,2.34-1.05,2.34-2.34v-3.96c0-1.29-1.05-2.34-2.34-2.34h-3.75c-1.29,0-2.34-1.05-2.34-2.34v-28.28c0-1.29,1.05-2.34,2.34-2.34h3.75c1.29,0,2.34-1.05,2.34-2.34v-3.96c0-1.29-1.05-2.34-2.34-2.34h-22.6c-1.29,0-2.34,1.05-2.34,2.34Z"/>
          <path class="cls-1" d="M395.58,77.72c-.98-1.85-2.28-3.33-3.89-4.46-1.61-1.13-3.36-2.01-5.25-2.66-1.9-.65-3.8-1.2-5.72-1.65s-3.68-.94-5.29-1.44c-1.61-.5-2.89-1.16-3.85-1.98-.96-.81-1.44-1.89-1.44-3.24,0-1.87.71-3.31,2.12-4.32,1.41-1.01,3.2-1.51,5.36-1.51,1.49,0,2.89.25,4.14.9,1.65.87,2.78,2.2,3.41,3.15.43.65,1.16,1.03,1.94,1.03h6.3c1.63,0,2.8-1.64,2.19-3.16-.43-1.08-.97-2.08-1.64-3-1.77-2.45-4.09-4.32-6.94-5.61-2.85-1.3-5.98-1.94-9.39-1.94-3.69,0-6.91.65-9.64,1.94-2.73,1.29-4.86,3.06-6.37,5.29-1.51,2.23-2.27,4.74-2.27,7.52s.48,4.9,1.44,6.65c.96,1.75,2.24,3.16,3.85,4.21,1.61,1.06,3.37,1.92,5.29,2.59,1.92.67,3.83,1.25,5.72,1.73,1.9.48,3.65,1,5.25,1.55,1.61.55,2.89,1.26,3.85,2.12.96.86,1.44,2.01,1.44,3.45,0,1.97-.73,3.5-2.19,4.61-1.46,1.1-3.42,1.65-5.86,1.65-3.02,0-5.32-.89-6.91-2.66-.66-.74-1.17-1.63-1.54-2.66-.37-1.01-1.3-1.69-2.38-1.69h-5.67c-1.56,0-2.67,1.49-2.25,2.99.38,1.36.89,2.64,1.54,3.81,1.58,2.83,3.84,5.01,6.76,6.55,2.93,1.53,6.41,2.3,10.43,2.3,3.65,0,6.9-.64,9.75-1.91,2.85-1.27,5.1-3.02,6.73-5.25,1.63-2.23,2.45-4.83,2.45-7.81s-.49-5.24-1.48-7.09Z"/>
          <path class="cls-1" d="M309.49,77.72c-.98-1.85-2.28-3.33-3.89-4.46-1.61-1.13-3.36-2.01-5.25-2.66-1.9-.65-3.8-1.2-5.72-1.65s-3.68-.94-5.29-1.44c-1.61-.5-2.89-1.16-3.85-1.98-.96-.81-1.44-1.89-1.44-3.24,0-1.87.71-3.31,2.12-4.32,1.41-1.01,3.2-1.51,5.36-1.51,1.49,0,2.89.25,4.14.9,1.65.87,2.78,2.2,3.41,3.15.43.65,1.16,1.03,1.94,1.03h6.3c1.63,0,2.8-1.64,2.19-3.16-.43-1.08-.97-2.08-1.64-3-1.77-2.45-4.09-4.32-6.94-5.61-2.85-1.3-5.98-1.94-9.39-1.94-3.69,0-6.91.65-9.64,1.94-2.73,1.29-4.86,3.06-6.37,5.29-1.51,2.23-2.27,4.74-2.27,7.52s.48,4.9,1.44,6.65c.96,1.75,2.24,3.16,3.85,4.21,1.61,1.06,3.37,1.92,5.29,2.59,1.92.67,3.83,1.25,5.72,1.73,1.9.48,3.65,1,5.25,1.55,1.61.55,2.89,1.26,3.85,2.12.96.86,1.44,2.01,1.44,3.45,0,1.97-.73,3.5-2.19,4.61s-3.42,1.65-5.86,1.65c-3.02,0-5.32-.89-6.91-2.66-.66-.74-1.17-1.63-1.54-2.66-.37-1.01-1.3-1.69-2.38-1.69h-5.67c-1.56,0-2.67,1.49-2.25,2.99.38,1.36.89,2.64,1.54,3.81,1.58,2.83,3.84,5.01,6.76,6.55,2.93,1.53,6.41,2.3,10.43,2.3,3.65,0,6.9-.64,9.75-1.91,2.85-1.27,5.1-3.02,6.73-5.25,1.63-2.23,2.45-4.83,2.45-7.81s-.49-5.24-1.48-7.09Z"/>
        </g>
      </g>
      <g>
        <path class="cls-1" d="M418.11,97.58v-47.56c0-.74.6-1.34,1.34-1.34h3.66c.47,0,.91.25,1.15.66l22.51,38.3c.7,1.19,2.53.66,2.49-.72l-.27-8.44v-28.46c0-.74.6-1.34,1.34-1.34h2.08c.74,0,1.34.6,1.34,1.34v47.56c0,.74-.6,1.34-1.34,1.34h-3.59c-.47,0-.91-.25-1.15-.65l-22.58-38.06c-.7-1.19-2.53-.66-2.48.72l.26,8.12v28.53c0,.74-.6,1.34-1.34,1.34h-2.08c-.74,0-1.34-.6-1.34-1.34Z"/>
        <path class="cls-1" d="M465.75,97.58v-47.56c0-.74.6-1.34,1.34-1.34h32.59c.74,0,1.34.6,1.34,1.34v1.65c0,.74-.6,1.34-1.34,1.34h-27.84c-.74,0-1.34.6-1.34,1.34v15.03c0,.74.6,1.34,1.34,1.34h19.06c.74,0,1.34.6,1.34,1.34v1.65c0,.74-.6,1.34-1.34,1.34h-19.06c-.74,0-1.34.6-1.34,1.34v16.9c0,.74.6,1.34,1.34,1.34h28.13c.74,0,1.34.6,1.34,1.34v1.65c0,.74-.6,1.34-1.34,1.34h-32.88c-.74,0-1.34-.6-1.34-1.34Z"/>
        <path class="cls-1" d="M526.99,97.58v-43.24c0-.74-.6-1.34-1.34-1.34h-14.53c-.74,0-1.34-.6-1.34-1.34v-1.65c0-.74.6-1.34,1.34-1.34h36.55c.74,0,1.34.6,1.34,1.34v1.65c0,.74-.6,1.34-1.34,1.34h-14.53c-.74,0-1.34.6-1.34,1.34v43.24c0,.74-.6,1.34-1.34,1.34h-2.15c-.74,0-1.34-.6-1.34-1.34Z"/>
        <path class="cls-1" d="M561.02,97.77l-6.68-47.56c-.11-.8.51-1.52,1.32-1.52h2.05c.67,0,1.23.49,1.32,1.15l4.81,34.4.48,4.37c.1.92,1.43.97,1.59.06l.81-4.42,7.05-34.48c.13-.62.67-1.07,1.31-1.07h2.78c.64,0,1.18.45,1.31,1.07l6.98,34.48.7,4c.16.93,1.51.87,1.6-.06l.37-3.94,4.73-34.4c.09-.66.66-1.15,1.32-1.15h1.98c.81,0,1.44.72,1.32,1.52l-6.68,47.56c-.09.66-.66,1.15-1.32,1.15h-4.37c-.64,0-1.18-.45-1.31-1.07l-6.55-32.75-.18-1.16c-.23-1.49-2.38-1.51-2.63-.02l-.2,1.18-6.76,32.76c-.13.62-.67,1.07-1.31,1.07h-4.52c-.67,0-1.23-.49-1.32-1.15Z"/>
        <path class="cls-1" d="M623.07,99.78c-4.17,0-7.8-1.08-10.87-3.24-3.07-2.16-5.45-5.18-7.12-9.07-1.68-3.89-2.52-8.44-2.52-13.67s.84-9.8,2.52-13.71c1.68-3.91,4.05-6.93,7.12-9.07,3.07-2.13,6.69-3.2,10.87-3.2s7.8,1.07,10.87,3.2c3.07,2.13,5.44,5.16,7.12,9.07,1.68,3.91,2.52,8.48,2.52,13.71s-.84,9.79-2.52,13.67c-1.68,3.89-4.05,6.91-7.12,9.07-3.07,2.16-6.69,3.24-10.87,3.24ZM623.07,95.47c3.12,0,5.83-.9,8.13-2.7,2.3-1.8,4.09-4.33,5.36-7.59,1.27-3.26,1.91-7.05,1.91-11.37s-.64-8.17-1.91-11.41c-1.27-3.24-3.06-5.76-5.36-7.56-2.3-1.8-5.01-2.7-8.13-2.7s-5.83.9-8.13,2.7c-2.3,1.8-4.09,4.33-5.36,7.59-1.27,3.26-1.91,7.05-1.91,11.37s.64,8.11,1.91,11.37c1.27,3.26,3.06,5.79,5.36,7.59,2.3,1.8,5.01,2.7,8.13,2.7Z"/>
        <path class="cls-1" d="M653.58,97.58v-47.56c0-.74.6-1.34,1.34-1.34h2.08c.74,0,1.34.6,1.34,1.34v47.56c0,.74-.6,1.34-1.34,1.34h-2.08c-.74,0-1.34-.6-1.34-1.34ZM656.97,75.06v-1.58c0-.74.6-1.34,1.34-1.34h12.34c2.59,0,4.87-.41,6.84-1.22,1.97-.82,3.53-1.98,4.68-3.49,1.15-1.51,1.73-3.27,1.73-5.29s-.5-3.55-1.51-4.89c-1.01-1.34-2.35-2.39-4.03-3.13-1.68-.74-3.53-1.12-5.54-1.12h-14.5c-.74,0-1.34-.6-1.34-1.34v-1.65c0-.74.6-1.34,1.34-1.34h14.5c3.07,0,5.83.53,8.28,1.58,2.45,1.06,4.38,2.59,5.79,4.61,1.42,2.02,2.12,4.44,2.12,7.27,0,1.87-.42,3.66-1.26,5.36s-2.05,3.23-3.63,4.57c-1.58,1.34-3.51,2.4-5.79,3.17s-4.86,1.15-7.74,1.15h-12.27c-.74,0-1.34-.6-1.34-1.34ZM684.51,98.92c-.62,0-1.15-.43-1.3-1.04-.48-1.98-1.16-3.92-2.04-5.8-1.03-2.21-2.39-4.33-4.07-6.37-1.68-2.04-3.73-3.96-6.15-5.76-1.63-1.21-3.44-2.38-5.44-3.51-1.06-.6-.86-2.18.33-2.47l1.44-.35c.31-.07.64-.04.92.1,3.26,1.62,6.05,3.36,8.37,5.22,2.42,1.94,4.44,3.98,6.04,6.12,1.61,2.14,2.85,4.35,3.74,6.66.7,1.8,1.22,3.67,1.58,5.59.15.83-.46,1.61-1.31,1.61h-2.12Z"/>
        <path class="cls-1" d="M700.36,97.58v-47.56c0-.74.6-1.34,1.34-1.34h2.08c.74,0,1.34.6,1.34,1.34v13.27l-.09,6.4c-.02,1.21,1.46,1.82,2.3.94l4.78-4.97,16.52-16.59c.25-.25.59-.39.95-.39h2.66c1.19,0,1.78,1.43.95,2.27l-27.67,28.07c-.25.25-.38.59-.38.94v17.62c0,.74-.6,1.34-1.34,1.34h-2.08c-.74,0-1.34-.6-1.34-1.34ZM730.98,98.38l-20.02-27.15c-.44-.6-.31-1.45.3-1.88l1.78-1.26c.59-.42,1.41-.29,1.85.3l20.97,28.41c.65.88.02,2.13-1.07,2.13h-2.73c-.42,0-.82-.2-1.07-.54Z"/>
      </g>
    </g>
  </g>
</svg>
