<svg fill="none" xmlns="http://www.w3.org/2000/svg" viewBox="0 0 176 71">
  <path fill-rule="evenodd" clip-rule="evenodd" d="M104.8 10.1c-3.3-4.5-8.13-7.34-13.47-7.34-10.33 0-17.89 10.25-17.89 21.36 0 7.74 4.82 13.54 10.17 13.54.5 0 1-.05 1.48-.15-3.58-2.79-5.87-7.87-5.87-13.39 0-8.78 5.56-15.63 12.11-15.63 7.15 0 12.12 7.59 12.12 15.63-.02 5.94-2 11.85-5.49 16.2-3.04 3.81-6.99 6.22-11.32 6.99 0 0 .36.03.83.03 12 0 21.73-10.4 21.73-23.22 0-5.27-1.64-10.12-4.4-14.02Zm-3.3 14.02c0-7.74-4.82-13.54-10.17-13.54-.5 0-1 .05-1.48.15 3.58 2.79 5.88 7.88 5.88 13.4 0 8.77-5.57 15.62-12.12 15.62-7.15 0-12.12-7.59-12.12-15.63.02-5.94 2-11.85 5.49-16.2C80.02 4.12 83.97 1.7 88.3.93c0 0-.36-.02-.83-.02-12 0-21.73 10.39-21.73 23.21 0 5.27 1.64 10.12 4.4 14.02 3.3 4.5 8.13 7.34 13.47 7.34 10.33 0 17.89-10.25 17.89-21.36Z" fill="#fff"/>
  <path d="M0 64.47c0 3.38 2.49 6 5.95 6a5.83 5.83 0 0 0 5.97-6c0-3.38-2.5-5.99-5.97-5.99a5.82 5.82 0 0 0-5.95 6Zm2.26 0a3.62 3.62 0 0 1 3.7-3.74 3.6 3.6 0 0 1 3.68 3.74 3.6 3.6 0 0 1-3.69 3.75 3.62 3.62 0 0 1-3.69-3.75ZM21.25 70.29h2.3l-3.77-11.63h-2.33l-3.8 11.63h2.25l.54-1.66h4.27l.54 1.66Zm-4.1-3.86 1.42-4.41L20 66.43h-2.85ZM31.8 62.05h2.26c0-2.12-1.76-3.57-4.13-3.57-2.42 0-4.1 1.55-4.1 3.67 0 1.48.82 2.64 2.34 3.07 1.03.29 2.25.2 3 .48.45.16.82.53.82 1.1 0 .84-.71 1.5-1.93 1.5-1.2 0-2.08-.62-2.08-1.55h-2.24c0 2.2 1.83 3.72 4.28 3.72 2.54 0 4.22-1.6 4.22-3.8 0-1.56-.9-2.7-2.38-3.14-1.1-.33-2.23-.19-2.97-.46-.5-.18-.81-.54-.81-1.04 0-.78.7-1.38 1.82-1.38 1.1 0 1.87.56 1.9 1.4ZM37.39 70.29h2.26V58.66h-2.26v11.63ZM48.9 62.05h2.27c0-2.12-1.76-3.57-4.13-3.57-2.42 0-4.1 1.55-4.1 3.67 0 1.48.82 2.64 2.34 3.07 1.03.29 2.25.2 3 .48.45.16.82.53.82 1.1 0 .84-.72 1.5-1.93 1.5-1.2 0-2.08-.62-2.08-1.55h-2.25c0 2.2 1.84 3.72 4.3 3.72 2.53 0 4.2-1.6 4.2-3.8 0-1.56-.9-2.7-2.37-3.14-1.1-.33-2.23-.19-2.98-.46-.49-.18-.8-.54-.8-1.04 0-.78.7-1.38 1.82-1.38 1.1 0 1.87.56 1.9 1.4ZM60.34 70.29h2.26v-4.73h3.72v-2.23H62.6v-2.44h6.71v-2.23h-8.97v11.63ZM71.36 64.47c0 3.38 2.49 6 5.95 6a5.83 5.83 0 0 0 5.97-6c0-3.38-2.5-5.99-5.97-5.99a5.82 5.82 0 0 0-5.95 6Zm2.26 0a3.62 3.62 0 0 1 3.7-3.74A3.6 3.6 0 0 1 81 64.47a3.6 3.6 0 0 1-3.69 3.75 3.62 3.62 0 0 1-3.69-3.75ZM95.64 58.66h-2.25v7.15c0 1.36-.98 2.4-2.36 2.4a2.33 2.33 0 0 1-2.37-2.4v-7.15H86.4v7.25a4.48 4.48 0 0 0 4.63 4.56c2.61 0 4.6-1.95 4.6-4.56v-7.25ZM106.33 58.66v7.6l-4.83-7.6h-2.24v11.63h2.24v-7.6l4.83 7.6h2.25V58.66h-2.25ZM116.15 58.66h-3.86v11.63h3.86c3.35 0 5.78-2.5 5.78-5.8s-2.43-5.83-5.78-5.83Zm-1.6 2.23h1.58a3.47 3.47 0 0 1 3.53 3.6 3.44 3.44 0 0 1-3.53 3.57h-1.58v-7.17ZM131.27 70.29h2.3l-3.77-11.63h-2.33l-3.8 11.63h2.25l.54-1.66h4.27l.54 1.66Zm-4.1-3.86 1.42-4.41 1.43 4.41h-2.85ZM137.59 70.29h2.26v-9.4h3.36v-2.23h-8.98v2.23h3.36v9.4ZM146.1 70.29h2.27V58.66h-2.27v11.63ZM151.56 64.47c0 3.38 2.49 6 5.96 6a5.83 5.83 0 0 0 5.96-6c0-3.38-2.5-5.99-5.96-5.99a5.82 5.82 0 0 0-5.96 6Zm2.27 0a3.61 3.61 0 0 1 3.69-3.74 3.6 3.6 0 0 1 3.68 3.74 3.6 3.6 0 0 1-3.68 3.75 3.61 3.61 0 0 1-3.7-3.75ZM173.75 58.66v7.6l-4.82-7.6h-2.25v11.63h2.25v-7.6l4.82 7.6H176V58.66h-2.25Z" fill="#fff"/>
</svg>
